<svg width="306" height="310" viewBox="0 0 306 310" fill="none" xmlns="http://www.w3.org/2000/svg">
<g id="Frame 1" clip-path="url(#clip0_1_30)">
<g id="right-node">
<g id="Group 3">
<path id="Line 1" d="M219.957 114.575V156.803" stroke="white" stroke-width="2"/>
<line id="Line 2" y1="-1" x2="71.9785" y2="-1" transform="matrix(0 -1 -1 0 192.06 274.848)" stroke="white" stroke-width="2"/>
<line id="Line 3" y1="-1" x2="54.7357" y2="-1" transform="matrix(-0.500877 0.865519 0.866531 0.499124 220.919 156.803)" stroke="white" stroke-width="2"/>
</g>
<g id="Group 4">
<path id="Line 1_2" d="M214.185 114.575V156.803" stroke="white" stroke-width="2"/>
<line id="Line 2_2" y1="-1" x2="76.7771" y2="-1" transform="matrix(0 -1 -1 0 186.288 279.646)" stroke="white" stroke-width="2"/>
<line id="Line 3_2" y1="-1" x2="54.7357" y2="-1" transform="matrix(-0.500877 0.865519 0.866531 0.499124 215.147 156.803)" stroke="white" stroke-width="2"/>
</g>
<path id="Ellipse 2" d="M210.375 108.817C210.375 112.503 213.371 115.495 217.071 115.495C220.771 115.495 223.767 112.503 223.767 108.817C223.767 105.131 220.771 102.139 217.071 102.139C213.371 102.139 210.375 105.131 210.375 108.817Z" stroke="white" stroke-width="2"/>
</g>
<g id="left-node">
<g id="Group 3_2">
<path id="Line 1_3" d="M87.2066 125.132V167.36" stroke="white" stroke-width="2"/>
<line id="Line 2_3" x1="114.103" y1="275.807" x2="114.103" y2="213.426" stroke="white" stroke-width="2"/>
<line id="Line 3_3" y1="-1" x2="54.7357" y2="-1" transform="matrix(0.500877 0.865519 -0.866531 0.499124 86.2447 167.36)" stroke="white" stroke-width="2"/>
</g>
<g id="Group 4_2">
<path id="Line 1_4" d="M92.9784 125.132V167.36" stroke="white" stroke-width="2"/>
<line id="Line 2_4" x1="119.875" y1="275.807" x2="119.875" y2="213.426" stroke="white" stroke-width="2"/>
<line id="Line 3_4" y1="-1" x2="54.7357" y2="-1" transform="matrix(0.500877 0.865519 -0.866531 0.499124 92.0164 167.36)" stroke="white" stroke-width="2"/>
</g>
<path id="Ellipse 2_2" d="M96.7882 119.374C96.7882 123.06 93.7926 126.052 90.0925 126.052C86.3924 126.052 83.3968 123.06 83.3968 119.374C83.3968 115.688 86.3924 112.696 90.0925 112.696C93.7926 112.696 96.7882 115.688 96.7882 119.374Z" stroke="white" stroke-width="2"/>
</g>
<g id="center-node">
<path id="Ellipse 1" d="M159.316 80.0257C159.316 83.7115 156.32 86.7034 152.62 86.7034C148.92 86.7034 145.924 83.7115 145.924 80.0257C145.924 76.3399 148.92 73.348 152.62 73.348C156.32 73.348 159.316 76.3399 159.316 80.0257Z" stroke="white" stroke-width="2"/>
<line id="Line 4" y1="-1" x2="195.784" y2="-1" transform="matrix(0.00491337 -0.999988 0.999988 0.00489046 149.734 281.565)" stroke="white" stroke-width="2"/>
<path id="Line 5" d="M154.055 283.19L155.025 85.7792" stroke="white" stroke-width="2"/>
</g>
<g id="frame">
<g id="Polygon 1" filter="url(#filter0_d_1_30)">
<path d="M19.5427 76.814L149.253 2.10056L278.963 76.814V226.235L149.253 300.948L19.5427 226.235V76.814Z" stroke="#05C3FF" stroke-width="3" shape-rendering="crispEdges"/>
</g>
<g id="Polygon 2" filter="url(#filter1_d_1_30)">
<path d="M111.297 8.38617L257.178 42.2376L300.734 185.205L198.409 294.32L52.5281 260.469L8.97262 117.501L111.297 8.38617Z" stroke="white" stroke-width="3" shape-rendering="crispEdges"/>
</g>
</g>
</g>
<defs>
<filter id="filter0_d_1_30" x="14.0427" y="0.369522" width="270.421" height="310.31" filterUnits="userSpaceOnUse" color-interpolation-filters="sRGB">
<feFlood flood-opacity="0" result="BackgroundImageFix"/>
<feColorMatrix in="SourceAlpha" type="matrix" values="0 0 0 0 0 0 0 0 0 0 0 0 0 0 0 0 0 0 127 0" result="hardAlpha"/>
<feOffset dy="4"/>
<feGaussianBlur stdDeviation="2"/>
<feComposite in2="hardAlpha" operator="out"/>
<feColorMatrix type="matrix" values="0 0 0 0 0 0 0 0 0 0 0 0 0 0 0 0 0 0 0.25 0"/>
<feBlend mode="normal" in2="BackgroundImageFix" result="effect1_dropShadow_1_30"/>
<feBlend mode="normal" in="SourceGraphic" in2="effect1_dropShadow_1_30" result="shape"/>
</filter>
<filter id="filter1_d_1_30" x="3.28363" y="6.7309" width="303.139" height="297.244" filterUnits="userSpaceOnUse" color-interpolation-filters="sRGB">
<feFlood flood-opacity="0" result="BackgroundImageFix"/>
<feColorMatrix in="SourceAlpha" type="matrix" values="0 0 0 0 0 0 0 0 0 0 0 0 0 0 0 0 0 0 127 0" result="hardAlpha"/>
<feOffset dy="4"/>
<feGaussianBlur stdDeviation="2"/>
<feComposite in2="hardAlpha" operator="out"/>
<feColorMatrix type="matrix" values="0 0 0 0 0 0 0 0 0 0 0 0 0 0 0 0 0 0 0.25 0"/>
<feBlend mode="normal" in2="BackgroundImageFix" result="effect1_dropShadow_1_30"/>
<feBlend mode="normal" in="SourceGraphic" in2="effect1_dropShadow_1_30" result="shape"/>
</filter>
<clipPath id="clip0_1_30">
<rect width="306" height="310" fill="white"/>
</clipPath>
</defs>
</svg>
