<svg width="582" height="668" viewBox="0 0 582 668" fill="none" xmlns="http://www.w3.org/2000/svg">
<g id="undraw_lighthouse_re_7r60 1" clip-path="url(#clip0_1_2)">
<path id="Vector" d="M248.226 95.7891H337.915V168.933H248.226V95.7891ZM335.915 97.7891H250.226V166.933H335.915V97.7891Z" fill="#3F3D56"/>
<path id="Vector_2" d="M321.969 96.7624L320.093 167.164L322.093 167.217L323.968 96.8157L321.969 96.7624Z" fill="#3F3D56"/>
<path id="Vector_3" d="M295.497 96.7624L293.621 167.164L295.62 167.217L297.496 96.8157L295.497 96.7624Z" fill="#3F3D56"/>
<path id="Vector_4" d="M269.025 96.7624L267.149 167.164L269.148 167.217L271.024 96.8157L269.025 96.7624Z" fill="#3F3D56"/>
<path id="Vector_5" d="M348.721 167.19H350.721V141.985L349.993 141.779C349.384 141.606 288.34 124.725 233.213 141.787L232.508 142.004V164.764H234.508V143.481C285.633 127.942 341.712 141.674 348.721 143.509V167.19V167.19Z" fill="#3F3D56"/>
<path id="Vector_6" d="M233.766 153.698C298.588 136.383 348.89 153.5 349.391 153.675L350.052 151.788C349.546 151.611 298.697 134.285 233.25 151.765L233.766 153.698V153.698Z" fill="#3F3D56"/>
<path id="Vector_7" d="M233.766 161.056C298.588 143.741 348.89 160.859 349.391 161.034L350.052 159.146C349.546 158.969 298.697 141.644 233.25 159.124L233.766 161.056V161.056Z" fill="#3F3D56"/>
<path id="Vector_8" d="M246.744 244.868H336.088V178.661L348.497 167.933C310.35 156.806 271.735 156.501 232.681 166.279L246.744 178.974V244.868V244.868Z" fill="#C94949"/>
<path id="Vector_9" d="M369.005 238.97H371.005V205.23L370.277 205.024C369.455 204.793 287.202 182.047 212.928 205.032L212.224 205.25V235.696H214.224V206.726C284.018 185.414 360.728 204.564 369.005 206.752V238.97V238.97Z" fill="#3F3D56"/>
<path id="Vector_10" d="M213.482 220.43C301.047 197.04 368.999 220.171 369.675 220.408L370.335 218.52C369.654 218.281 301.156 194.942 212.966 218.498L213.482 220.43Z" fill="#3F3D56"/>
<path id="Vector_11" d="M213.482 230.357C301.049 206.967 368.998 230.099 369.675 230.335L370.335 228.447C369.654 228.209 301.156 204.87 212.966 228.425L213.482 230.357Z" fill="#3F3D56"/>
<path id="Vector_12" d="M240.953 96.7891C240.953 112.323 267.963 97.1927 289.893 97.1927C311.824 97.1927 340.224 112.323 340.224 96.7891C340.224 81.2551 314.173 57.0807 292.243 57.0807C270.313 57.0807 240.953 81.2551 240.953 96.7891V96.7891Z" fill="#C94949"/>
<path id="Vector_13" d="M270.734 67.0078H313.752V43.8446H270.734V67.0078Z" fill="#C94949"/>
<path id="Vector_14" d="M288.107 47.9809H294.725V-3.8147e-06H288.107V47.9809Z" fill="#C94949"/>
<path id="Vector_15" d="M199.59 667.596H373.314L346.842 287.058L381.587 240.732C322.398 231.262 262.446 228.71 201.245 237.423L226.063 280.44L199.59 667.596V667.596Z" fill="#E6E6E6"/>
<g id="Group">
<path id="Vector_16" d="M226.063 667.596H257.498V594.798H226.063V667.596Z" fill="white"/>
<path id="Vector_17" d="M280.662 667.596L282.316 584.871L263.406 561.707H242.608L257.498 586.29L258.979 666.782" fill="#CCCCCC"/>
</g>
<g id="Group_2">
<path id="Vector_18" d="M301.063 667.596H332.498V594.798H301.063V667.596Z" fill="white"/>
<path id="Vector_19" d="M355.662 667.596L357.316 584.871L338.406 561.707H317.608L332.498 586.29L333.979 666.782" fill="#CCCCCC"/>
</g>
<path id="Vector_20" d="M434.085 668H436.085V611.179L435.357 610.973C434.985 610.868 397.509 600.388 343.929 595.189C294.469 590.389 220.76 589.233 150.487 610.98L149.782 611.198V665.809H151.782V612.674C221.526 591.25 294.623 592.414 343.737 597.18C393.042 601.964 428.624 611.223 434.085 612.698V668V668Z" fill="#3F3D56"/>
<path id="Vector_21" d="M151.04 637.341C234.15 615.141 306.86 616.316 353.221 621.211C403.464 626.516 434.448 637.211 434.755 637.318L435.415 635.431C435.107 635.323 403.955 624.564 353.501 619.23C306.957 614.31 233.96 613.122 150.524 635.408L151.04 637.341V637.341Z" fill="#3F3D56"/>
<path id="Vector_22" d="M151.04 655.342C234.15 633.143 306.86 634.318 353.221 639.213C403.464 644.518 434.448 655.212 434.755 655.32L435.415 653.432C435.107 653.324 403.955 642.565 353.501 637.231C306.958 632.311 233.96 631.124 150.524 653.41L151.04 655.342V655.342Z" fill="#3F3D56"/>
<path id="Vector_23" d="M581.177 665.782H0V667.782H581.177V665.782Z" fill="#2F2E41"/>
</g>
<defs>
<clipPath id="clip0_1_2">
<rect width="581.177" height="668" fill="white"/>
</clipPath>
</defs>
</svg>
