<svg width="960" height="540" viewBox="0 0 960 540" fill="none" xmlns="http://www.w3.org/2000/svg">
<g id="wave2-vector">
<g clip-path="url(#clip0_2_2)">
<g id="Vector" filter="url(#filter0_i_2_2)">
<path d="M960 0H0V540H960V0Z" fill="#47B5FF"/>
</g>
<g id="Wave2" filter="url(#filter1_d_2_2)">
<path d="M960 89.8296L920 102.828C880 115.933 800 141.931 720 157.149C640 172.261 560 176.489 480 168.034C400 159.58 320 138.443 240 139.289C160 140.24 80 163.067 40 174.586L0 186V9.53674e-06H40C80 9.53674e-06 160 9.53674e-06 240 9.53674e-06C320 9.53674e-06 400 9.53674e-06 480 9.53674e-06C560 9.53674e-06 640 9.53674e-06 720 9.53674e-06C800 9.53674e-06 880 9.53674e-06 920 9.53674e-06H960V89.8296Z" fill="#0066BB"/>
<path d="M960 89.8296V1.52588e-05H920L720 1.52588e-05L480 1.52588e-05L240 1.52588e-05L40 1.52588e-05H0.5V0.500015M960 89.8296L920 102.828C880 115.933 800 141.931 720 157.149C640 172.261 560 176.489 480 168.034C450.732 164.941 421.463 160.15 392.195 155.36C341.463 147.056 290.732 138.752 240 139.289C160 140.24 80 163.067 40 174.586M960 89.8296L959.845 89.354L919.845 102.353L919.844 102.353C879.844 115.458 799.871 141.446 719.907 156.658M960 89.8296L719.907 156.658M0.5 0.500015H0V185.48L0.5 185.337M0.5 0.500015V185.337M0.5 0.500015H40H40.2348H40.4706H40.7072H40.9448H41.1833H41.4227H41.663H41.9042H42.1462H42.3892H42.6331H42.8779H43.1236H43.3702H43.6176H43.866H44.1152H44.3654H44.6163H44.8682H45.121H45.3746H45.6292H45.8845H46.1408H46.3979H46.6559H46.9149L47.1746 0.500015H47.4352H47.6967H47.959H48.2222H48.4862H48.7511H49.0168H49.2834H49.5509H49.8192H50.0884H50.3583H50.6292H50.9008H51.1733H51.4467H51.7209H51.9959H52.2717H52.5484H52.8259H53.1042H53.3834H53.6634H53.9442H54.2258H54.5082H54.7914H55.0755H55.3604H55.6461H55.9326H56.2198H56.508H56.7969H57.0866H57.3771H57.6684H57.9605H58.2534H58.5471H58.8416H59.1368H59.4329H59.7297H60.0273H60.3257H60.6249H60.9249H61.2256H61.5271H61.8294H62.1324H62.4363H62.7408H63.0462H63.3523H63.6592H63.9668H64.2752H64.5844H64.8943H65.205H65.5164H65.8285H66.1414H66.4551H66.7695H67.0846H67.4005H67.7171H68.0345H68.3525H68.6714H68.991H69.3112H69.6322H69.954H70.2764H70.5996H70.9235H71.2482H71.5735H71.8995H72.2263H72.5538H72.882H73.2109H73.5405H73.8708H74.2018H74.5335H74.866H75.199H75.5328H75.8674H76.2026H76.5385H76.875H77.2123H77.5502H77.8888H78.2281H78.5681H78.9088H79.2501H79.5922H79.9348H80.2782H80.6222H80.9669H81.3123H81.6583H82.0049H82.3523H82.7003H83.049H83.3983H83.7482H84.0988H84.4501H84.802H85.1545H85.5078H85.8616H86.2161H86.5712H86.927H87.2834H87.6404H87.998H88.3563H88.7153H89.0748H89.4349H89.7957H90.1572H90.5192H90.8818H91.2451H91.6089H91.9734H92.3385H92.7042H93.0705H93.4374H93.8049H94.173H94.5417H94.9111H95.2809H95.6515H96.0226H96.3942H96.7665H97.1393H97.5128H97.8868H98.2614H98.6366H99.0124H99.3887H99.7656H100.143H100.521H100.9H101.279H101.659H102.039H102.42H102.801H103.183H103.566H103.949H104.333H104.717H105.102H105.487H105.873H106.259H106.646H107.034H107.422H107.81H108.199H108.589H108.979H109.37H109.761H110.153H110.545H110.938H111.331H111.725H112.119H112.514H112.909H113.305H113.702H114.099H114.496H114.894H115.292H115.691H116.091H116.49H116.891H117.292H117.693H118.095H118.497H118.9H119.303H119.707H120.112H120.516H120.922H121.327H121.734H122.14H122.547H122.955H123.363H123.772H124.181H124.59H125H125.41H125.821H126.233H126.644H127.056H127.469H127.882H128.296H128.71H129.124H129.539H129.954H130.37H130.786H131.203H131.62H132.037H132.455H132.874H133.292H133.711H134.131H134.551H134.971H135.392H135.814H136.235H136.657H137.08H137.503H137.926H138.35H138.774H139.198H139.623H140.048H140.474H140.9H141.327H141.753H142.181H142.608H143.036H143.465H143.893H144.323H144.752H145.182H145.612H146.043H146.474H146.905H147.337H147.769H148.201H148.634H149.067H149.501H149.935H150.369H150.804H151.238H151.674H152.109H152.545H152.982H153.418H153.855H154.293H154.73H155.168H155.607H156.045H156.484H156.923H157.363H157.803H158.243H158.684H159.125H159.566H160.008H160.449H160.891H161.334H161.777H162.22H162.663H163.107H163.551H163.995H164.44H164.884H165.33H165.775H166.221H166.667H167.113H167.56H168.006H168.454L168.901 0.500015H169.349H169.797H170.245H170.693H171.142H171.591H172.04H172.49H172.94H173.39H173.84H174.291H174.742H175.193H175.644H176.096H176.548H177H177.452H177.905H178.357H178.81H179.264H179.717H180.171H180.625H181.079H181.534H181.988H182.443H182.898H183.354H183.809H184.265H184.721H185.177H185.634H186.09H186.547H187.004H187.461H187.919H188.376H188.834H189.292H189.75H190.209H190.667H191.126H191.585H192.044H192.504H192.963H193.423H193.883H194.343H194.803H195.264H195.724H196.185H196.646H197.107H197.568H198.03H198.491H198.953H199.415H199.877H200.339H200.802H201.264H201.727H202.19H202.653H203.116H203.579H204.042H204.506H204.969H205.433H205.897H206.361H206.825H207.29H207.754H208.219H208.683H209.148H209.613H210.078H210.543H211.009H211.474H211.939H212.405H212.871H213.336H213.802H214.268H214.734H215.201H215.667H216.133H216.6H217.066H217.533H218H218.466H218.933H219.4H219.867H220.335H220.802H221.269H221.736H222.204H222.671H223.139H223.607H224.074H224.542H225.01H225.478H225.946H226.414H226.882H227.35H227.818H228.286H228.754H229.222H229.691H230.159H230.627H231.096H231.564H232.033H232.501H232.97H233.438H233.907H234.375H234.844H235.313H235.781H236.25H236.719H237.188H237.656H238.125H238.594H239.062H239.531H240H240.469H240.938H241.406H241.875H242.344H242.812H243.281H243.75H244.219H244.688H245.156H245.625H246.094H246.562H247.031H247.5H247.969H248.438H248.906H249.375H249.844H250.312H250.781H251.25H251.719H252.188H252.656H253.125H253.594H254.062H254.531H255H255.469H255.938H256.406H256.875H257.344H257.812H258.281H258.75H259.219H259.688H260.156H260.625H261.094H261.562H262.031H262.5H262.969H263.438H263.906H264.375H264.844H265.312H265.781H266.25H266.719H267.188H267.656H268.125H268.594H269.062H269.531H270H270.469H270.938H271.406H271.875H272.344H272.812H273.281H273.75H274.219H274.688H275.156H275.625H276.094H276.562H277.031H277.5H277.969H278.438H278.906H279.375H279.844H280.312H280.781H281.25H281.719H282.188H282.656H283.125H283.594H284.062H284.531H285H285.469H285.938H286.406H286.875H287.344H287.812H288.281H288.75H289.219H289.688H290.156L290.625 0.500015H291.094H291.562H292.031H292.5H292.969H293.438H293.906H294.375H294.844H295.312H295.781H296.25H296.719H297.188H297.656H298.125H298.594H299.062H299.531H300H300.469H300.938H301.406H301.875H302.344H302.812H303.281H303.75H304.219H304.688H305.156H305.625H306.094H306.562H307.031H307.5H307.969H308.438H308.906H309.375H309.844H310.312H310.781H311.25H311.719H312.188H312.656H313.125H313.594H314.062H314.531H315H315.469H315.938H316.406H316.875H317.344H317.812H318.281H318.75H319.219H319.688H320.156H320.625H321.094H321.562H322.031H322.5H322.969H323.438H323.906H324.375H324.844H325.312H325.781H326.25H326.719H327.188H327.656H328.125H328.594H329.062H329.531H330H330.469H330.938H331.406H331.875H332.344H332.812H333.281H333.75H334.219H334.688H335.156H335.625H336.094H336.562H337.031H337.5H337.969H338.438H338.906H339.375H339.844H340.312H340.781H341.25H341.719H342.188H342.656H343.125H343.594H344.062H344.531H345H345.469H345.938H346.406H346.875H347.344H347.812H348.281H348.75H349.219H349.688H350.156H350.625H351.094H351.562H352.031H352.5H352.969H353.438H353.906H354.375H354.844H355.312H355.781H356.25H356.719H357.188H357.656H358.125H358.594H359.062H359.531H360H360.469H360.938H361.406H361.875H362.344H362.812H363.281H363.75H364.219H364.688H365.156H365.625H366.094H366.562H367.031H367.5H367.969H368.438H368.906H369.375H369.844H370.312H370.781H371.25H371.719H372.188H372.656H373.125H373.594H374.062H374.531H375H375.469H375.938H376.406H376.875H377.344H377.812H378.281H378.75H379.219H379.688H380.156H380.625H381.094H381.562H382.031H382.5H382.969H383.438H383.906H384.375H384.844H385.312H385.781H386.25H386.719H387.188H387.656H388.125H388.594H389.062H389.531H390H390.469H390.938H391.406H391.875H392.344H392.812H393.281H393.75H394.219H394.688H395.156H395.625H396.094H396.562H397.031H397.5H397.969H398.438H398.906H399.375H399.844H400.312H400.781H401.25H401.719H402.188H402.656H403.125H403.594H404.062H404.531H405H405.469H405.938H406.406H406.875H407.344H407.812H408.281H408.75H409.219H409.688H410.156H410.625H411.094H411.562H412.031L412.5 0.500015H412.969H413.438H413.906H414.375H414.844H415.312H415.781H416.25H416.719H417.188H417.656H418.125H418.594H419.062H419.531H420H420.469H420.938H421.406H421.875H422.344H422.812H423.281H423.75H424.219H424.688H425.156H425.625H426.094H426.562H427.031H427.5H427.969H428.438H428.906H429.375H429.844H430.312H430.781H431.25H431.719H432.188H432.656H433.125H433.594H434.062H434.531H435H435.469H435.938H436.406H436.875H437.344H437.812H438.281H438.75H439.219H439.688H440.156H440.625H441.094H441.562H442.031H442.5H442.969H443.438H443.906H444.375H444.844H445.312H445.781H446.25H446.719H447.188H447.656H448.125H448.594H449.063H449.531H450H450.469H450.938H451.406H451.875H452.344H452.813H453.281H453.75H454.219H454.688H455.156H455.625H456.094H456.563H457.031H457.5H457.969H458.438H458.906H459.375H459.844H460.313H460.781H461.25H461.719H462.188H462.656H463.125H463.594H464.063H464.531H465H465.469H465.938H466.406H466.875H467.344H467.813H468.281H468.75H469.219H469.688H470.156H470.625H471.094H471.563H472.031H472.5H472.969H473.438H473.906H474.375H474.844H475.313H475.781H476.25H476.719H477.188H477.656H478.125H478.594H479.063H479.531H480H480.469H480.938H481.406H481.875H482.344H482.813H483.281H483.75H484.219H484.688H485.156H485.625H486.094H486.563H487.031H487.5H487.969H488.438H488.906H489.375H489.844H490.313H490.781H491.25H491.719H492.188H492.656H493.125H493.594H494.063H494.531H495H495.469H495.938H496.406H496.875H497.344H497.813H498.281H498.75H499.219H499.688H500.156H500.625H501.094H501.563H502.031H502.5H502.969H503.438H503.906H504.375H504.844H505.313H505.781H506.25H506.719H507.188H507.656H508.125H508.594H509.063H509.531H510H510.469H510.938H511.406H511.875H512.344H512.812H513.281H513.75H514.219H514.688H515.156H515.625H516.094H516.562H517.031H517.5H517.969H518.438H518.906H519.375H519.844H520.312H520.781H521.25H521.719H522.188H522.656H523.125H523.594H524.062H524.531H525H525.469H525.938H526.406H526.875H527.344H527.812H528.281H528.75H529.219H529.688H530.156H530.625H531.094H531.562H532.031H532.5H532.969H533.438H533.906L534.375 0.500015H534.844H535.312H535.781H536.25H536.719H537.188H537.656H538.125H538.594H539.062H539.531H540H540.469H540.938H541.406H541.875H542.344H542.812H543.281H543.75H544.219H544.688H545.156H545.625H546.094H546.562H547.031H547.5H547.969H548.438H548.906H549.375H549.844H550.312H550.781H551.25H551.719H552.188H552.656H553.125H553.594H554.062H554.531H555H555.469H555.938H556.406H556.875H557.344H557.812H558.281H558.75H559.219H559.688H560.156H560.625H561.094H561.562H562.031H562.5H562.969H563.438H563.906H564.375H564.844H565.312H565.781H566.25H566.719H567.188H567.656H568.125H568.594H569.062H569.531H570H570.469H570.938H571.406H571.875H572.344H572.812H573.281H573.75H574.219H574.688H575.156H575.625H576.094H576.562H577.031H577.5H577.969H578.438H578.906H579.375H579.844H580.312H580.781H581.25H581.719H582.188H582.656H583.125H583.594H584.062H584.531H585H585.469H585.938H586.406H586.875H587.344H587.812H588.281H588.75H589.219H589.688H590.156H590.625H591.094H591.562H592.031H592.5H592.969H593.438H593.906H594.375H594.844H595.312H595.781H596.25H596.719H597.188H597.656H598.125H598.594H599.062H599.531H600H600.469H600.938H601.406H601.875H602.344H602.812H603.281H603.75H604.219H604.688H605.156H605.625H606.094H606.562H607.031H607.5H607.969H608.438H608.906H609.375H609.844H610.312H610.781H611.25H611.719H612.188H612.656H613.125H613.594H614.062H614.531H615H615.469H615.938H616.406H616.875H617.344H617.812H618.281H618.75H619.219H619.688H620.156H620.625H621.094H621.562H622.031H622.5H622.969H623.438H623.906H624.375H624.844H625.312H625.781H626.25H626.719H627.188H627.656H628.125H628.594H629.062H629.531H630H630.469H630.938H631.406H631.875H632.344H632.812H633.281H633.75H634.219H634.688H635.156H635.625H636.094H636.562H637.031H637.5H637.969H638.438H638.906H639.375H639.844H640.312H640.781H641.25H641.719H642.188H642.656H643.125H643.594H644.062H644.531H645H645.469H645.938H646.406H646.875H647.344H647.812H648.281H648.75H649.219H649.688H650.156H650.625H651.094H651.562H652.031H652.5H652.969H653.438H653.906H654.375H654.844H655.312L655.781 0.500015H656.25H656.719H657.188H657.656H658.125H658.594H659.062H659.531H660H660.469H660.938H661.406H661.875H662.344H662.812H663.281H663.75H664.219H664.688H665.156H665.625H666.094H666.562H667.031H667.5H667.969H668.438H668.906H669.375H669.844H670.312H670.781H671.25H671.719H672.188H672.656H673.125H673.594H674.062H674.531H675H675.469H675.938H676.406H676.875H677.344H677.812H678.281H678.75H679.219H679.688H680.156H680.625H681.094H681.562H682.031H682.5H682.969H683.438H683.906H684.375H684.844H685.312H685.781H686.25H686.719H687.188H687.656H688.125H688.594H689.062H689.531H690H690.469H690.938H691.406H691.875H692.344H692.812H693.281H693.75H694.219H694.688H695.156H695.625H696.094H696.562H697.031H697.5H697.969H698.438H698.906H699.375H699.844H700.312H700.781H701.25H701.719H702.188H702.656H703.125H703.594H704.062H704.531H705H705.469H705.938H706.406H706.875H707.344H707.812H708.281H708.75H709.219H709.688H710.156H710.625H711.094H711.562H712.031H712.5H712.969H713.438H713.906H714.375H714.844H715.312H715.781H716.25H716.719H717.188H717.656H718.125H718.594H719.062H719.531H720H720.469H720.938H721.406H721.875H722.344H722.812H723.281H723.75H724.219H724.687H725.156H725.624H726.093H726.562H727.03H727.499H727.967H728.436H728.904H729.373H729.841H730.309H730.778H731.246H731.714H732.182H732.65H733.118H733.586H734.054H734.522H734.99H735.458H735.926H736.393H736.861H737.329H737.796H738.264H738.731H739.198H739.665H740.133H740.6H741.067H741.533H742H742.467H742.934H743.4H743.867H744.333H744.799H745.266H745.732H746.198H746.664H747.129H747.595H748.061H748.526H748.991H749.457H749.922H750.387H750.852H751.317H751.781H752.246H752.71H753.175H753.639H754.103H754.567H755.031H755.494H755.958H756.421H756.884H757.347H757.81H758.273H758.736H759.198H759.661H760.123H760.585H761.047H761.509H761.97H762.432H762.893H763.354H763.815H764.276H764.736H765.197H765.657H766.117H766.577H767.037H767.496H767.956H768.415H768.874H769.333H769.791H770.25H770.708H771.166H771.624H772.081H772.539H772.996H773.453H773.91H774.366H774.823H775.279H775.735H776.191H776.646H777.102L777.557 0.500015H778.012H778.466H778.921H779.375H779.829H780.283H780.736H781.19H781.643H782.095H782.548H783H783.452H783.904H784.356H784.807H785.258H785.709H786.16H786.61H787.06H787.51H787.96H788.409H788.858H789.307H789.755H790.203H790.651H791.099H791.546H791.994H792.44H792.887H793.333H793.779H794.225H794.67H795.116H795.56H796.005H796.449H796.893H797.337H797.78H798.223H798.666H799.109H799.551H799.993H800.434H800.875H801.316H801.757H802.197H802.637H803.077H803.516H803.955H804.393H804.832H805.27H805.707H806.145H806.582H807.018H807.455H807.891H808.326H808.762H809.196H809.631H810.065H810.499H810.933H811.366H811.799H812.231H812.663H813.095H813.526H813.957H814.388H814.818H815.248H815.678H816.107H816.535H816.964H817.392H817.819H818.247H818.673H819.1H819.526H819.952H820.377H820.802H821.226H821.65H822.074H822.497H822.92H823.343H823.765H824.186H824.608H825.029H825.449H825.869H826.289H826.708H827.126H827.545H827.963H828.38H828.797H829.214H829.63H830.046H830.461H830.876H831.29H831.704H832.118H832.531H832.944H833.356H833.767H834.179H834.59H835H835.41H835.819H836.228H836.637H837.045H837.453H837.86H838.266H838.673H839.078H839.484H839.888H840.293H840.697H841.1H841.503H841.905H842.307H842.708H843.109H843.51H843.909H844.309H844.708H845.106H845.504H845.901H846.298H846.695H847.091H847.486H847.881H848.275H848.669H849.062H849.455H849.847H850.239H850.63H851.021H851.411H851.801H852.19H852.578H852.966H853.354H853.741H854.127H854.513H854.898H855.283H855.667H856.051H856.434H856.817H857.199H857.58H857.961H858.341H858.721H859.1H859.479H859.857H860.234H860.611H860.988H861.363H861.739H862.113H862.487H862.861H863.233H863.606H863.977H864.349H864.719H865.089H865.458H865.827H866.195H866.563H866.929H867.296H867.661H868.027H868.391H868.755H869.118H869.481H869.843H870.204H870.565H870.925H871.285H871.644H872.002H872.36H872.717H873.073H873.429H873.784H874.138H874.492H874.845H875.198H875.55H875.901H876.252H876.602H876.951H877.3H877.648H877.995H878.342H878.688H879.033H879.378H879.722H880.065H880.408H880.75H881.091H881.432H881.772H882.111H882.45H882.788H883.125H883.462H883.797H884.133H884.467H884.801H885.134H885.466H885.798H886.129H886.46H886.789H887.118H887.446H887.774H888.1H888.427H888.752H889.076H889.4H889.724H890.046H890.368H890.689H891.009H891.329H891.647H891.966H892.283H892.6H892.915H893.231H893.545H893.859H894.171H894.484H894.795H895.106H895.416H895.725H896.033H896.341H896.648H896.954H897.259H897.564H897.868H898.171H898.473H898.774H899.075L899.375 0.500015H899.674H899.973H900.27H900.567H900.863H901.158H901.453H901.747H902.04H902.332H902.623H902.913H903.203H903.492H903.78H904.067H904.354H904.64H904.924H905.209H905.492H905.774H906.056H906.337H906.617H906.896H907.174H907.452H907.728H908.004H908.279H908.553H908.827H909.099H909.371H909.642H909.912H910.181H910.449H910.717H910.983H911.249H911.514H911.778H912.041H912.303H912.565H912.825H913.085H913.344H913.602H913.859H914.115H914.371H914.625H914.879H915.132H915.384H915.635H915.885H916.134H916.382H916.63H916.876H917.122H917.367H917.611H917.854H918.096H918.337H918.577H918.817H919.055H919.293H919.529H919.765H920L39.8616 174.106M0.5 185.337V185.857L40 174.586M0.5 185.337L39.8616 174.106M40 174.586L39.8616 174.106M40 174.586L39.8616 174.106M719.907 156.658C639.95 171.762 560 175.986 480.053 167.537C450.8 164.445 421.552 159.658 392.289 154.868C381.554 153.111 370.817 151.354 360.077 149.68C320.071 143.444 280.038 138.365 239.995 138.789L239.994 138.789C159.919 139.741 79.8602 162.587 39.8628 174.106L719.907 156.658Z" stroke="black"/>
</g>
<g id="Wave1" filter="url(#filter2_d_2_2)">
<path d="M960 89.8296L920 102.828C880 115.933 800 141.931 720 157.149C640 172.261 560 176.489 480 168.034C400 159.58 320 138.443 240 139.289C160 140.24 80 163.067 40 174.586L0 186V5.53131e-05H40C80 5.53131e-05 160 5.53131e-05 240 5.53131e-05C320 5.53131e-05 400 5.53131e-05 480 5.53131e-05C560 5.53131e-05 640 5.53131e-05 720 5.53131e-05C800 5.53131e-05 880 5.53131e-05 920 5.53131e-05H960V89.8296Z" fill="#0066DD"/>
<path d="M960 89.8296V6.10352e-05H920L720 6.10352e-05H480L240 6.10352e-05L40 6.10352e-05H0.5V0.500061M960 89.8296L920 102.828C880 115.933 800 141.931 720 157.149C640 172.261 560 176.489 480 168.034C450.732 164.941 421.463 160.15 392.195 155.36C341.463 147.056 290.732 138.753 240 139.289C160 140.24 80 163.067 40 174.586M960 89.8296L959.845 89.3541L919.845 102.353L919.844 102.353C879.844 115.458 799.871 141.446 719.907 156.658M960 89.8296L719.907 156.658M0.5 0.500061H0V185.48L0.5 185.337M0.5 0.500061V185.337M0.5 0.500061H40H40.2348H40.4706H40.7072H40.9448H41.1833H41.4227H41.663H41.9042H42.1462H42.3892H42.6331H42.8779H43.1236H43.3702H43.6176H43.866H44.1152H44.3654H44.6163H44.8682H45.121H45.3746H45.6292H45.8845H46.1408H46.3979H46.6559H46.9149H47.1746H47.4352H47.6967H47.959H48.2222H48.4862H48.7511H49.0168H49.2834H49.5509H49.8192H50.0884H50.3583H50.6292H50.9008H51.1733H51.4467H51.7209H51.9959H52.2717H52.5484H52.8259H53.1042H53.3834H53.6634H53.9442H54.2258H54.5082H54.7914H55.0755H55.3604H55.6461H55.9326H56.2198H56.508H56.7969H57.0866H57.3771H57.6684H57.9605H58.2534H58.5471H58.8416H59.1368H59.4329H59.7297H60.0273H60.3257H60.6249H60.9249H61.2256H61.5271H61.8294H62.1324H62.4363H62.7408H63.0462H63.3523H63.6592H63.9668H64.2752H64.5844H64.8943H65.205H65.5164H65.8285H66.1414H66.4551H66.7695H67.0846H67.4005H67.7171H68.0345H68.3525H68.6714H68.991H69.3112H69.6322H69.954H70.2764H70.5996H70.9235H71.2482H71.5735H71.8995H72.2263H72.5538H72.882H73.2109H73.5405H73.8708H74.2018H74.5335H74.866H75.199H75.5328H75.8674H76.2026H76.5385H76.875H77.2123H77.5502H77.8888H78.2281H78.5681H78.9088H79.2501H79.5922H79.9348H80.2782H80.6222H80.9669H81.3123H81.6583H82.0049H82.3523H82.7003H83.049H83.3983H83.7482H84.0988H84.4501H84.802H85.1545H85.5078H85.8616H86.2161H86.5712H86.927H87.2834H87.6404H87.998H88.3563H88.7153H89.0748H89.4349H89.7957H90.1572H90.5192H90.8818H91.2451H91.6089H91.9734H92.3385H92.7042H93.0705H93.4374H93.8049H94.173H94.5417H94.9111H95.2809H95.6515H96.0226H96.3942H96.7665H97.1393H97.5128H97.8868H98.2614H98.6366H99.0124H99.3887H99.7656H100.143H100.521H100.9H101.279H101.659H102.039H102.42H102.801H103.183H103.566H103.949H104.333H104.717H105.102H105.487H105.873H106.259H106.646L107.034 0.500061H107.422H107.81H108.199H108.589H108.979H109.37H109.761H110.153H110.545H110.938H111.331H111.725H112.119H112.514H112.909H113.305H113.702H114.099H114.496H114.894H115.292H115.691H116.091H116.49H116.891H117.292H117.693H118.095H118.497H118.9H119.303H119.707H120.112H120.516H120.922H121.327H121.734H122.14H122.547H122.955H123.363H123.772H124.181H124.59H125H125.41H125.821H126.233H126.644H127.056H127.469H127.882H128.296H128.71H129.124H129.539H129.954H130.37H130.786H131.203H131.62H132.037H132.455H132.874H133.292H133.711H134.131H134.551H134.971H135.392H135.814H136.235H136.657H137.08H137.503H137.926H138.35H138.774H139.198H139.623H140.048H140.474H140.9H141.327H141.753H142.181H142.608H143.036H143.465H143.893H144.323H144.752H145.182H145.612H146.043H146.474H146.905H147.337H147.769H148.201H148.634H149.067H149.501H149.935H150.369H150.804H151.238H151.674H152.109H152.545H152.982H153.418H153.855H154.293H154.73H155.168H155.607H156.045H156.484H156.923H157.363H157.803H158.243H158.684H159.125H159.566H160.008H160.449H160.891H161.334H161.777H162.22H162.663H163.107H163.551H163.995H164.44H164.884H165.33H165.775H166.221H166.667H167.113H167.56H168.006H168.454H168.901H169.349H169.797H170.245H170.693H171.142H171.591H172.04H172.49H172.94H173.39H173.84H174.291H174.742H175.193H175.644H176.096H176.548H177H177.452H177.905H178.357H178.81H179.264H179.717H180.171H180.625H181.079H181.534H181.988H182.443H182.898H183.354H183.809H184.265H184.721H185.177H185.634H186.09H186.547H187.004H187.461H187.919H188.376H188.834H189.292H189.75H190.209H190.667H191.126H191.585H192.044H192.504H192.963H193.423H193.883H194.343H194.803H195.264H195.724H196.185H196.646H197.107H197.568H198.03H198.491H198.953H199.415H199.877H200.339H200.802H201.264H201.727H202.19H202.653H203.116H203.579H204.042H204.506H204.969H205.433H205.897H206.361H206.825H207.29H207.754H208.219H208.683H209.148H209.613H210.078H210.543H211.009H211.474H211.939H212.405H212.871H213.336H213.802H214.268H214.734H215.201H215.667H216.133H216.6H217.066H217.533H218H218.466H218.933H219.4H219.867H220.335H220.802H221.269H221.736H222.204H222.671H223.139H223.607H224.074H224.542H225.01H225.478H225.946H226.414H226.882H227.35H227.818H228.286H228.754H229.222H229.691H230.159H230.627H231.096H231.564H232.033H232.501H232.97H233.438H233.907H234.375H234.844H235.313H235.781H236.25H236.719H237.188H237.656H238.125H238.594H239.062H239.531H240H240.469H240.938H241.406H241.875H242.344H242.812H243.281H243.75H244.219H244.688H245.156H245.625H246.094H246.562H247.031H247.5H247.969H248.438H248.906H249.375H249.844H250.312H250.781H251.25H251.719H252.188H252.656H253.125H253.594H254.062H254.531H255H255.469H255.938H256.406H256.875H257.344H257.812H258.281H258.75H259.219H259.688H260.156H260.625H261.094H261.562H262.031H262.5H262.969H263.438H263.906H264.375H264.844H265.312H265.781H266.25H266.719H267.188H267.656H268.125H268.594H269.062H269.531H270H270.469H270.938H271.406H271.875H272.344H272.812H273.281H273.75H274.219H274.688H275.156H275.625H276.094H276.562H277.031H277.5H277.969H278.438H278.906H279.375H279.844H280.312H280.781H281.25H281.719H282.188H282.656H283.125H283.594H284.062H284.531H285H285.469H285.938H286.406H286.875H287.344H287.812H288.281H288.75H289.219H289.688H290.156H290.625H291.094H291.562H292.031H292.5H292.969H293.438H293.906H294.375H294.844H295.312H295.781H296.25H296.719H297.188H297.656H298.125H298.594H299.062H299.531H300H300.469H300.938H301.406H301.875H302.344H302.812H303.281H303.75H304.219H304.688H305.156H305.625H306.094H306.562H307.031H307.5H307.969H308.438H308.906H309.375H309.844H310.312H310.781H311.25H311.719H312.188H312.656H313.125H313.594H314.062H314.531H315H315.469H315.938H316.406H316.875H317.344H317.812H318.281H318.75H319.219H319.688H320.156H320.625H321.094H321.562H322.031H322.5H322.969H323.438H323.906H324.375H324.844H325.312H325.781H326.25H326.719H327.188H327.656H328.125H328.594H329.062H329.531H330H330.469H330.938H331.406H331.875H332.344H332.812H333.281H333.75H334.219H334.688H335.156H335.625H336.094H336.562H337.031H337.5H337.969H338.438H338.906H339.375H339.844H340.312H340.781H341.25H341.719H342.188H342.656H343.125H343.594H344.062H344.531H345H345.469H345.938H346.406H346.875H347.344H347.812H348.281H348.75H349.219H349.688H350.156H350.625H351.094H351.562H352.031H352.5H352.969H353.438H353.906H354.375H354.844H355.312H355.781H356.25H356.719H357.188H357.656H358.125H358.594H359.062H359.531H360H360.469H360.938H361.406H361.875H362.344H362.812H363.281H363.75H364.219H364.688H365.156H365.625H366.094H366.562H367.031H367.5H367.969H368.438H368.906H369.375H369.844H370.312H370.781H371.25H371.719H372.188H372.656H373.125H373.594H374.062H374.531H375H375.469H375.938H376.406H376.875H377.344H377.812H378.281H378.75H379.219H379.688H380.156H380.625H381.094H381.562H382.031H382.5H382.969H383.438H383.906H384.375H384.844H385.312H385.781H386.25H386.719H387.188H387.656H388.125H388.594H389.062H389.531H390H390.469H390.938H391.406H391.875H392.344H392.812H393.281H393.75H394.219H394.688H395.156H395.625H396.094H396.562H397.031H397.5H397.969H398.438H398.906H399.375H399.844H400.312H400.781H401.25H401.719H402.188H402.656H403.125H403.594H404.062H404.531H405H405.469H405.938H406.406H406.875H407.344H407.812H408.281H408.75H409.219H409.688H410.156H410.625H411.094H411.562H412.031H412.5H412.969H413.438H413.906H414.375H414.844H415.312H415.781H416.25H416.719H417.188H417.656H418.125H418.594H419.062H419.531H420H420.469H420.938H421.406H421.875H422.344H422.812H423.281H423.75H424.219H424.688H425.156H425.625H426.094H426.562H427.031H427.5H427.969H428.438H428.906H429.375H429.844H430.312H430.781H431.25H431.719H432.188H432.656H433.125H433.594H434.062H434.531H435H435.469H435.938H436.406H436.875H437.344H437.812H438.281H438.75H439.219H439.688H440.156H440.625H441.094H441.562H442.031H442.5H442.969H443.438H443.906H444.375H444.844H445.312H445.781H446.25H446.719H447.188H447.656L448.125 0.500061H448.594H449.062H449.531H450H450.469H450.938H451.406H451.875H452.344H452.812H453.281H453.75H454.219H454.688H455.156H455.625H456.094H456.562H457.031H457.5H457.969H458.438H458.906H459.375H459.844H460.312H460.781H461.25H461.719H462.188H462.656H463.125H463.594H464.062H464.531H465H465.469H465.938H466.406H466.875H467.344H467.812H468.281H468.75H469.219H469.688H470.156H470.625H471.094H471.562H472.031H472.5H472.969H473.438H473.906H474.375H474.844H475.312H475.781H476.25H476.719H477.188H477.656H478.125H478.594H479.062H479.531H480H480.469H480.938H481.406H481.875H482.344H482.812H483.281H483.75H484.219H484.688H485.156H485.625H486.094H486.562H487.031H487.5H487.969H488.438H488.906H489.375H489.844H490.312H490.781H491.25H491.719H492.188H492.656H493.125H493.594H494.062H494.531H495H495.469H495.938H496.406H496.875H497.344H497.812H498.281H498.75H499.219H499.688H500.156H500.625H501.094H501.562H502.031H502.5H502.969H503.438H503.906H504.375H504.844H505.312H505.781H506.25H506.719H507.188H507.656H508.125H508.594H509.062H509.531H510H510.469H510.938H511.406H511.875H512.344H512.812H513.281H513.75H514.219H514.688H515.156H515.625H516.094H516.562H517.031H517.5H517.969H518.438H518.906H519.375H519.844H520.312H520.781H521.25H521.719H522.188H522.656H523.125H523.594H524.062H524.531H525H525.469H525.938H526.406H526.875H527.344H527.812H528.281H528.75H529.219H529.688H530.156H530.625H531.094H531.562H532.031H532.5H532.969H533.438H533.906H534.375H534.844H535.312H535.781H536.25H536.719H537.188H537.656H538.125H538.594H539.062H539.531H540H540.469H540.938H541.406H541.875H542.344H542.812H543.281H543.75H544.219H544.688H545.156H545.625H546.094H546.562H547.031H547.5H547.969H548.438H548.906H549.375H549.844H550.312H550.781H551.25H551.719H552.188H552.656H553.125H553.594H554.062H554.531H555H555.469H555.938H556.406H556.875H557.344H557.812H558.281H558.75H559.219H559.688H560.156H560.625H561.094H561.562H562.031H562.5H562.969H563.438H563.906H564.375H564.844H565.312H565.781H566.25H566.719H567.188H567.656H568.125H568.594H569.062H569.531H570H570.469H570.938H571.406H571.875H572.344H572.812H573.281H573.75H574.219H574.688H575.156H575.625H576.094H576.562H577.031H577.5H577.969H578.438H578.906H579.375H579.844H580.312H580.781H581.25H581.719H582.188H582.656H583.125H583.594H584.062H584.531H585H585.469H585.938H586.406H586.875H587.344H587.812H588.281H588.75H589.219H589.688H590.156H590.625H591.094H591.562H592.031H592.5H592.969H593.438H593.906H594.375H594.844H595.312H595.781H596.25H596.719H597.188H597.656H598.125H598.594H599.062H599.531H600H600.469H600.938H601.406H601.875H602.344H602.812H603.281H603.75H604.219H604.688H605.156H605.625H606.094H606.562H607.031H607.5H607.969H608.438H608.906H609.375H609.844H610.312H610.781H611.25H611.719H612.188H612.656H613.125H613.594H614.062H614.531H615H615.469H615.938H616.406H616.875H617.344H617.812H618.281H618.75H619.219H619.688H620.156H620.625H621.094H621.562H622.031H622.5H622.969H623.438H623.906H624.375H624.844H625.312H625.781H626.25H626.719H627.188H627.656H628.125H628.594H629.062H629.531H630H630.469H630.938H631.406H631.875H632.344H632.812H633.281H633.75H634.219H634.688H635.156H635.625H636.094H636.562H637.031H637.5H637.969H638.438H638.906H639.375H639.844H640.312H640.781H641.25H641.719H642.188H642.656H643.125H643.594H644.062H644.531H645H645.469H645.938H646.406H646.875H647.344H647.812H648.281H648.75H649.219H649.688H650.156H650.625H651.094H651.562H652.031H652.5H652.969H653.438H653.906H654.375H654.844H655.312H655.781H656.25H656.719H657.188H657.656H658.125H658.594H659.062H659.531H660H660.469H660.938H661.406H661.875H662.344H662.812H663.281H663.75H664.219H664.688H665.156H665.625H666.094H666.562H667.031H667.5H667.969H668.438H668.906H669.375H669.844H670.312H670.781H671.25H671.719H672.188H672.656H673.125H673.594H674.062H674.531H675H675.469H675.938H676.406H676.875H677.344H677.812H678.281H678.75H679.219H679.688H680.156H680.625H681.094H681.562H682.031H682.5H682.969H683.438H683.906H684.375H684.844H685.312H685.781H686.25H686.719H687.188H687.656H688.125H688.594H689.062H689.531H690H690.469H690.938H691.406H691.875H692.344H692.812H693.281H693.75H694.219H694.688H695.156H695.625H696.094H696.562H697.031H697.5H697.969H698.438H698.906H699.375H699.844H700.312H700.781H701.25H701.719H702.188H702.656H703.125H703.594H704.062H704.531H705H705.469H705.938H706.406H706.875H707.344H707.812H708.281H708.75H709.219H709.688H710.156H710.625H711.094H711.562H712.031H712.5H712.969H713.438H713.906H714.375H714.844H715.312H715.781H716.25H716.719H717.188H717.656H718.125H718.594H719.062H719.531H720H720.469H720.938H721.406H721.875H722.344H722.812H723.281H723.75H724.219H724.687H725.156H725.624H726.093H726.562H727.03H727.499H727.967H728.436H728.904H729.373H729.841H730.309H730.778H731.246H731.714H732.182H732.65H733.118H733.586H734.054H734.522H734.99H735.458H735.926H736.393H736.861H737.329H737.796H738.264H738.731H739.198H739.665H740.133H740.6H741.067H741.533H742H742.467H742.934H743.4H743.867H744.333H744.799H745.266H745.732H746.198H746.664H747.129H747.595H748.061H748.526H748.991H749.457H749.922H750.387H750.852H751.317H751.781H752.246H752.71H753.175H753.639H754.103H754.567H755.031H755.494H755.958H756.421H756.884H757.347H757.81H758.273H758.736H759.198H759.661H760.123H760.585H761.047H761.509H761.97H762.432H762.893H763.354H763.815H764.276H764.736H765.197H765.657H766.117H766.577H767.037H767.496H767.956H768.415H768.874H769.333H769.791H770.25H770.708H771.166H771.624H772.081H772.539H772.996H773.453H773.91H774.366H774.823H775.279H775.735H776.191H776.646H777.102H777.557H778.012H778.466H778.921H779.375H779.829H780.283H780.736H781.19H781.643H782.095H782.548H783H783.452H783.904H784.356H784.807H785.258H785.709H786.16H786.61H787.06H787.51H787.96H788.409H788.858H789.307L789.755 0.500061H790.203H790.651H791.099H791.546H791.994H792.44H792.887H793.333H793.779H794.225H794.67H795.116H795.56H796.005H796.449H796.893H797.337H797.78H798.223H798.666H799.109H799.551H799.993H800.434H800.875H801.316H801.757H802.197H802.637H803.077H803.516H803.955H804.393H804.832H805.27H805.707H806.145H806.582H807.018H807.455H807.891H808.326H808.762H809.196H809.631H810.065H810.499H810.933H811.366H811.799H812.231H812.663H813.095H813.526H813.957H814.388H814.818H815.248H815.678H816.107H816.535H816.964H817.392H817.819H818.247H818.673H819.1H819.526H819.952H820.377H820.802H821.226H821.65H822.074H822.497H822.92H823.343H823.765H824.186H824.608H825.029H825.449H825.869H826.289H826.708H827.126H827.545H827.963H828.38H828.797H829.214H829.63H830.046H830.461H830.876H831.29H831.704H832.118H832.531H832.944H833.356H833.767H834.179H834.59H835H835.41H835.819H836.228H836.637H837.045H837.453H837.86H838.266H838.673H839.078H839.484H839.888H840.293H840.697H841.1H841.503H841.905H842.307H842.708H843.109H843.51H843.909H844.309H844.708H845.106H845.504H845.901H846.298H846.695H847.091H847.486H847.881H848.275H848.669H849.062H849.455H849.847H850.239H850.63H851.021H851.411H851.801H852.19H852.578H852.966H853.354H853.741H854.127H854.513H854.898H855.283H855.667H856.051H856.434H856.817H857.199H857.58H857.961H858.341H858.721H859.1H859.479H859.857H860.234H860.611H860.988H861.363H861.739H862.113H862.487H862.861H863.233H863.606H863.977H864.349H864.719H865.089H865.458H865.827H866.195H866.563H866.929H867.296H867.661H868.027H868.391H868.755H869.118H869.481H869.843H870.204H870.565H870.925H871.285H871.644H872.002H872.36H872.717H873.073H873.429H873.784H874.138H874.492H874.845H875.198H875.55H875.901H876.252H876.602H876.951H877.3H877.648H877.995H878.342H878.688H879.033H879.378H879.722H880.065H880.408H880.75H881.091H881.432H881.772H882.111H882.45H882.788H883.125H883.462H883.797H884.133H884.467H884.801H885.134H885.466H885.798H886.129H886.46H886.789H887.118H887.446H887.774H888.1H888.427H888.752H889.076H889.4H889.724H890.046H890.368H890.689H891.009H891.329H891.647H891.966H892.283H892.6H892.915H893.231H893.545H893.859H894.171H894.484H894.795H895.106H895.416H895.725H896.033H896.341H896.648H896.954H897.259H897.564H897.868H898.171H898.473H898.774H899.075H899.375H899.674H899.973H900.27H900.567H900.863H901.158H901.453H901.747H902.04H902.332H902.623H902.913H903.203H903.492H903.78H904.067H904.354H904.64H904.924H905.209H905.492H905.774H906.056H906.337H906.617H906.896H907.174H907.452H907.728H908.004H908.279H908.553H908.827H909.099H909.371H909.642H909.912H910.181H910.449H910.717H910.983H911.249H911.514H911.778H912.041H912.303H912.565H912.825H913.085H913.344H913.602H913.859H914.115H914.371H914.625H914.879H915.132H915.384H915.635H915.885H916.134H916.382H916.63H916.876H917.122H917.367H917.611H917.854H918.096H918.337H918.577H918.817H919.055H919.293H919.529H919.765H920L39.8616 174.106M0.5 185.337V185.857L40 174.586M0.5 185.337L39.8616 174.106M40 174.586L39.8616 174.106M40 174.586L39.8616 174.106M719.907 156.658C639.95 171.762 560 175.986 480.053 167.537C450.8 164.445 421.552 159.658 392.289 154.868C381.554 153.111 370.817 151.354 360.077 149.68C320.071 143.444 280.038 138.366 239.995 138.789L239.994 138.789C159.919 139.741 79.8602 162.587 39.8628 174.106L719.907 156.658Z" stroke="black"/>
</g>
<g id="Wave" filter="url(#filter3_d_2_2)">
<path d="M960 89.8296L920 102.828C880 115.933 800 141.931 720 157.149C640 172.261 560 176.489 480 168.034C400 159.58 320 138.443 240 139.289C160 140.24 80 163.067 40 174.586L0 186V1.52588e-05H40C80 1.52588e-05 160 1.52588e-05 240 1.52588e-05C320 1.52588e-05 400 1.52588e-05 480 1.52588e-05C560 1.52588e-05 640 1.52588e-05 720 1.52588e-05C800 1.52588e-05 880 1.52588e-05 920 1.52588e-05H960V89.8296Z" fill="#0066FF"/>
<path d="M960 89.8296V1.52588e-05H920L720 1.52588e-05L480 1.52588e-05L240 1.52588e-05L40 1.52588e-05H0.5V0.500015M960 89.8296L920 102.828C880 115.933 800 141.931 720 157.149C640 172.261 560 176.489 480 168.034C450.732 164.941 421.463 160.15 392.195 155.36C341.463 147.056 290.732 138.752 240 139.289C160 140.24 80 163.067 40 174.586M960 89.8296L959.845 89.354L919.845 102.353L919.844 102.353C879.844 115.458 799.871 141.446 719.907 156.658M960 89.8296L719.907 156.658M0.5 0.500015H0V185.48L0.5 185.337M0.5 0.500015V185.337M0.5 0.500015H40H40.2348H40.4706H40.7072H40.9448H41.1833H41.4227H41.663H41.9042H42.1462H42.3892H42.6331H42.8779H43.1236H43.3702H43.6176H43.866H44.1152H44.3654H44.6163H44.8682H45.121H45.3746H45.6292H45.8845H46.1408H46.3979H46.6559H46.9149H47.1746H47.4352H47.6967H47.959H48.2222H48.4862H48.7511H49.0168H49.2834H49.5509H49.8192H50.0884H50.3583H50.6292H50.9008H51.1733H51.4467H51.7209H51.9959H52.2717H52.5484H52.8259H53.1042H53.3834H53.6634H53.9442H54.2258H54.5082H54.7914H55.0755H55.3604H55.6461H55.9326H56.2198H56.508H56.7969H57.0866H57.3771H57.6684H57.9605H58.2534H58.5471H58.8416H59.1368H59.4329H59.7297H60.0273H60.3257H60.6249H60.9249H61.2256H61.5271H61.8294H62.1324H62.4363H62.7408H63.0462H63.3523H63.6592H63.9668H64.2752H64.5844H64.8943H65.205H65.5164H65.8285H66.1414H66.4551H66.7695H67.0846H67.4005H67.7171H68.0345H68.3525H68.6714H68.991H69.3112H69.6322H69.954H70.2764H70.5996H70.9235H71.2482H71.5735H71.8995H72.2263H72.5538H72.882H73.2109H73.5405H73.8708H74.2018H74.5335H74.866H75.199H75.5328H75.8674H76.2026H76.5385H76.875H77.2123H77.5502H77.8888H78.2281H78.5681H78.9088H79.2501H79.5922H79.9348H80.2782H80.6222H80.9669H81.3123H81.6583H82.0049H82.3523H82.7003H83.049H83.3983H83.7482H84.0988H84.4501H84.802H85.1545H85.5078H85.8616H86.2161H86.5712H86.927H87.2834H87.6404H87.998H88.3563H88.7153H89.0748H89.4349H89.7957H90.1572H90.5192H90.8818H91.2451H91.6089H91.9734H92.3385H92.7042H93.0705H93.4374H93.8049H94.173H94.5417H94.9111H95.2809H95.6515H96.0226H96.3942H96.7665H97.1393H97.5128H97.8868H98.2614H98.6366H99.0124H99.3887H99.7656H100.143H100.521H100.9H101.279H101.659H102.039H102.42H102.801H103.183H103.566H103.949H104.333H104.717H105.102H105.487H105.873H106.259H106.646H107.034H107.422H107.81H108.199H108.589H108.979H109.37H109.761H110.153H110.545H110.938H111.331H111.725H112.119H112.514H112.909H113.305H113.702H114.099H114.496H114.894H115.292H115.691H116.091H116.49H116.891H117.292H117.693H118.095H118.497H118.9H119.303H119.707H120.112H120.516H120.922H121.327H121.734H122.14H122.547H122.955H123.363H123.772H124.181H124.59H125H125.41H125.821H126.233H126.644H127.056H127.469H127.882H128.296H128.71H129.124H129.539H129.954H130.37H130.786H131.203H131.62H132.037H132.455H132.874H133.292H133.711H134.131H134.551H134.971H135.392H135.814H136.235H136.657H137.08H137.503H137.926H138.35H138.774H139.198H139.623H140.048H140.474H140.9H141.327H141.753H142.181H142.608H143.036H143.465H143.893H144.323H144.752H145.182H145.612H146.043H146.474H146.905H147.337L147.769 0.500015H148.201H148.634H149.067H149.501H149.935H150.369H150.804H151.238H151.674H152.109H152.545H152.982H153.418H153.855H154.293H154.73H155.168H155.607H156.045H156.484H156.923H157.363H157.803H158.243H158.684H159.125H159.566H160.008H160.449H160.891H161.334H161.777H162.22H162.663H163.107H163.551H163.995H164.44H164.884H165.33H165.775H166.221H166.667H167.113H167.56H168.006H168.454H168.901H169.349H169.797H170.245H170.693H171.142H171.591H172.04H172.49H172.94H173.39H173.84H174.291H174.742H175.193H175.644H176.096H176.548H177H177.452H177.905H178.357H178.81H179.264H179.717H180.171H180.625H181.079H181.534H181.988H182.443H182.898H183.354H183.809H184.265H184.721H185.177H185.634H186.09H186.547H187.004H187.461H187.919H188.376H188.834H189.292H189.75H190.209H190.667H191.126H191.585H192.044H192.504H192.963H193.423H193.883H194.343H194.803H195.264H195.724H196.185H196.646H197.107H197.568H198.03H198.491H198.953H199.415H199.877H200.339H200.802H201.264H201.727H202.19H202.653H203.116H203.579H204.042H204.506H204.969H205.433H205.897H206.361H206.825H207.29H207.754H208.219H208.683H209.148H209.613H210.078H210.543H211.009H211.474H211.939H212.405H212.871H213.336H213.802H214.268H214.734H215.201H215.667H216.133H216.6H217.066H217.533H218H218.466H218.933H219.4H219.867H220.335H220.802H221.269H221.736H222.204H222.671H223.139H223.607H224.074H224.542H225.01H225.478H225.946H226.414H226.882H227.35H227.818H228.286H228.754H229.222H229.691H230.159H230.627H231.096H231.564H232.033H232.501H232.97H233.438H233.907H234.375H234.844H235.313H235.781H236.25H236.719H237.188H237.656H238.125H238.594H239.062H239.531H240H240.469H240.938H241.406H241.875H242.344H242.812H243.281H243.75H244.219H244.688H245.156H245.625H246.094H246.562H247.031H247.5H247.969H248.438H248.906H249.375H249.844H250.312H250.781H251.25H251.719H252.188H252.656H253.125H253.594H254.062H254.531H255H255.469H255.938H256.406H256.875H257.344H257.812H258.281H258.75H259.219H259.688H260.156H260.625H261.094H261.562H262.031H262.5H262.969H263.438H263.906H264.375H264.844H265.312H265.781H266.25H266.719H267.188H267.656H268.125H268.594H269.062H269.531H270H270.469H270.938H271.406H271.875H272.344H272.812H273.281H273.75H274.219H274.688H275.156H275.625H276.094H276.562H277.031H277.5H277.969H278.438H278.906H279.375H279.844H280.312H280.781H281.25H281.719H282.188H282.656H283.125H283.594H284.062H284.531H285H285.469H285.938H286.406H286.875H287.344H287.812H288.281H288.75H289.219H289.688H290.156H290.625H291.094H291.562H292.031H292.5H292.969H293.438H293.906H294.375H294.844H295.312H295.781H296.25H296.719H297.188H297.656H298.125H298.594H299.062H299.531H300H300.469H300.938H301.406H301.875H302.344H302.812H303.281H303.75H304.219H304.688H305.156H305.625H306.094H306.562H307.031H307.5H307.969H308.438H308.906H309.375H309.844H310.312H310.781H311.25H311.719H312.188H312.656H313.125H313.594H314.062H314.531H315H315.469H315.938H316.406H316.875H317.344H317.812H318.281H318.75H319.219H319.688H320.156H320.625H321.094H321.562H322.031H322.5H322.969H323.438H323.906H324.375H324.844H325.312H325.781H326.25H326.719H327.188H327.656H328.125H328.594H329.062H329.531H330H330.469H330.938H331.406H331.875H332.344H332.812H333.281H333.75H334.219H334.688H335.156H335.625H336.094H336.562H337.031H337.5H337.969H338.438H338.906H339.375H339.844H340.312H340.781H341.25H341.719H342.188H342.656H343.125H343.594H344.062H344.531H345H345.469H345.938H346.406H346.875H347.344H347.812H348.281H348.75H349.219H349.688H350.156H350.625H351.094H351.562H352.031H352.5H352.969H353.438H353.906H354.375H354.844H355.312H355.781H356.25H356.719H357.188H357.656H358.125H358.594H359.062H359.531H360H360.469H360.938H361.406H361.875H362.344H362.812H363.281H363.75H364.219H364.688H365.156H365.625H366.094H366.562H367.031H367.5H367.969H368.438H368.906H369.375H369.844H370.312H370.781H371.25H371.719H372.188H372.656H373.125H373.594H374.062H374.531H375H375.469H375.938H376.406H376.875H377.344H377.812H378.281H378.75H379.219H379.688L380.156 0.500015H380.625H381.094H381.562H382.031H382.5H382.969H383.438H383.906H384.375H384.844H385.312H385.781H386.25H386.719H387.188H387.656H388.125H388.594H389.062H389.531H390H390.469H390.938H391.406H391.875H392.344H392.812H393.281H393.75H394.219H394.688H395.156H395.625H396.094H396.562H397.031H397.5H397.969H398.438H398.906H399.375H399.844H400.312H400.781H401.25H401.719H402.188H402.656H403.125H403.594H404.062H404.531H405H405.469H405.938H406.406H406.875H407.344H407.812H408.281H408.75H409.219H409.688H410.156H410.625H411.094H411.562H412.031H412.5H412.969H413.438H413.906H414.375H414.844H415.312H415.781H416.25H416.719H417.188H417.656H418.125H418.594H419.062H419.531H420H420.469H420.938H421.406H421.875H422.344H422.812H423.281H423.75H424.219H424.688H425.156H425.625H426.094H426.562H427.031H427.5H427.969H428.438H428.906H429.375H429.844H430.312H430.781H431.25H431.719H432.188H432.656H433.125H433.594H434.062H434.531H435H435.469H435.938H436.406H436.875H437.344H437.812H438.281H438.75H439.219H439.688H440.156H440.625H441.094H441.562H442.031H442.5H442.969H443.438H443.906H444.375H444.844H445.312H445.781H446.25H446.719H447.188H447.656H448.125H448.594H449.062H449.531H450H450.469H450.938H451.406H451.875H452.344H452.812H453.281H453.75H454.219H454.688H455.156H455.625H456.094H456.562H457.031H457.5H457.969H458.438H458.906H459.375H459.844H460.312H460.781H461.25H461.719H462.188H462.656H463.125H463.594H464.062H464.531H465H465.469H465.938H466.406H466.875H467.344H467.812H468.281H468.75H469.219H469.688H470.156H470.625H471.094H471.562H472.031H472.5H472.969H473.438H473.906H474.375H474.844H475.312H475.781H476.25H476.719H477.188H477.656H478.125H478.594H479.062H479.531H480H480.469H480.938H481.406H481.875H482.344H482.812H483.281H483.75H484.219H484.688H485.156H485.625H486.094H486.562H487.031H487.5H487.969H488.438H488.906H489.375H489.844H490.312H490.781H491.25H491.719H492.188H492.656H493.125H493.594H494.062H494.531H495H495.469H495.938H496.406H496.875H497.344H497.812H498.281H498.75H499.219H499.688H500.156H500.625H501.094H501.562H502.031H502.5H502.969H503.438H503.906H504.375H504.844H505.312H505.781H506.25H506.719H507.188H507.656H508.125H508.594H509.062H509.531H510H510.469H510.938H511.406H511.875H512.344H512.812H513.281H513.75H514.219H514.688H515.156H515.625H516.094H516.562H517.031H517.5H517.969H518.438H518.906H519.375H519.844H520.312H520.781H521.25H521.719H522.188H522.656H523.125H523.594H524.062H524.531H525H525.469H525.938H526.406H526.875H527.344H527.812H528.281H528.75H529.219H529.688H530.156H530.625H531.094H531.562H532.031H532.5H532.969H533.438H533.906H534.375H534.844H535.312H535.781H536.25H536.719H537.188H537.656H538.125H538.594H539.062H539.531H540H540.469H540.938H541.406H541.875H542.344H542.812H543.281H543.75H544.219H544.688H545.156H545.625H546.094H546.562H547.031H547.5H547.969H548.438H548.906H549.375H549.844H550.312H550.781H551.25H551.719H552.188H552.656H553.125H553.594H554.062H554.531H555H555.469H555.938H556.406H556.875H557.344H557.812H558.281H558.75H559.219H559.688H560.156H560.625H561.094H561.562H562.031H562.5H562.969H563.438H563.906H564.375H564.844H565.312H565.781H566.25H566.719H567.188H567.656H568.125H568.594H569.062H569.531H570H570.469H570.938H571.406H571.875H572.344H572.812H573.281H573.75H574.219H574.688H575.156H575.625H576.094H576.562H577.031H577.5H577.969H578.438H578.906H579.375H579.844H580.312H580.781H581.25H581.719H582.188H582.656H583.125H583.594H584.062H584.531H585H585.469H585.938H586.406H586.875H587.344H587.812H588.281H588.75H589.219H589.688H590.156H590.625H591.094H591.562H592.031H592.5H592.969H593.438H593.906H594.375H594.844H595.312H595.781H596.25H596.719H597.188H597.656H598.125H598.594H599.062H599.531H600H600.469H600.938H601.406H601.875H602.344H602.812H603.281H603.75H604.219H604.688H605.156H605.625H606.094H606.562H607.031H607.5H607.969H608.438H608.906H609.375H609.844H610.312H610.781H611.25H611.719L612.188 0.500015H612.656H613.125H613.594H614.062H614.531H615H615.469H615.938H616.406H616.875H617.344H617.812H618.281H618.75H619.219H619.688H620.156H620.625H621.094H621.562H622.031H622.5H622.969H623.438H623.906H624.375H624.844H625.312H625.781H626.25H626.719H627.188H627.656H628.125H628.594H629.062H629.531H630H630.469H630.938H631.406H631.875H632.344H632.812H633.281H633.75H634.219H634.688H635.156H635.625H636.094H636.562H637.031H637.5H637.969H638.438H638.906H639.375H639.844H640.312H640.781H641.25H641.719H642.188H642.656H643.125H643.594H644.062H644.531H645H645.469H645.938H646.406H646.875H647.344H647.812H648.281H648.75H649.219H649.688H650.156H650.625H651.094H651.562H652.031H652.5H652.969H653.438H653.906H654.375H654.844H655.312H655.781H656.25H656.719H657.188H657.656H658.125H658.594H659.062H659.531H660H660.469H660.938H661.406H661.875H662.344H662.812H663.281H663.75H664.219H664.688H665.156H665.625H666.094H666.562H667.031H667.5H667.969H668.438H668.906H669.375H669.844H670.312H670.781H671.25H671.719H672.188H672.656H673.125H673.594H674.062H674.531H675H675.469H675.938H676.406H676.875H677.344H677.812H678.281H678.75H679.219H679.688H680.156H680.625H681.094H681.562H682.031H682.5H682.969H683.438H683.906H684.375H684.844H685.312H685.781H686.25H686.719H687.188H687.656H688.125H688.594H689.062H689.531H690H690.469H690.938H691.406H691.875H692.344H692.812H693.281H693.75H694.219H694.688H695.156H695.625H696.094H696.562H697.031H697.5H697.969H698.438H698.906H699.375H699.844H700.312H700.781H701.25H701.719H702.188H702.656H703.125H703.594H704.062H704.531H705H705.469H705.938H706.406H706.875H707.344H707.812H708.281H708.75H709.219H709.688H710.156H710.625H711.094H711.562H712.031H712.5H712.969H713.438H713.906H714.375H714.844H715.312H715.781H716.25H716.719H717.188H717.656H718.125H718.594H719.062H719.531H720H720.469H720.938H721.406H721.875H722.344H722.812H723.281H723.75H724.219H724.687H725.156H725.624H726.093H726.562H727.03H727.499H727.967H728.436H728.904H729.373H729.841H730.309H730.778H731.246H731.714H732.182H732.65H733.118H733.586H734.054H734.522H734.99H735.458H735.926H736.393H736.861H737.329H737.796H738.264H738.731H739.198H739.665H740.133H740.6H741.067H741.533H742H742.467H742.934H743.4H743.867H744.333H744.799H745.266H745.732H746.198H746.664H747.129H747.595H748.061H748.526H748.991H749.457H749.922H750.387H750.852H751.317H751.781H752.246H752.71H753.175H753.639H754.103H754.567H755.031H755.494H755.958H756.421H756.884H757.347H757.81H758.273H758.736H759.198H759.661H760.123H760.585H761.047H761.509H761.97H762.432H762.893H763.354H763.815H764.276H764.736H765.197H765.657H766.117H766.577H767.037H767.496H767.956H768.415H768.874H769.333H769.791H770.25H770.708H771.166H771.624H772.081H772.539H772.996H773.453H773.91H774.366H774.823H775.279H775.735H776.191H776.646H777.102H777.557H778.012H778.466H778.921H779.375H779.829H780.283H780.736H781.19H781.643H782.095H782.548H783H783.452H783.904H784.356H784.807H785.258H785.709H786.16H786.61H787.06H787.51H787.96H788.409H788.858H789.307H789.755H790.203H790.651H791.099H791.546H791.994H792.44H792.887H793.333H793.779H794.225H794.67H795.116H795.56H796.005H796.449H796.893H797.337H797.78H798.223H798.666H799.109H799.551H799.993H800.434H800.875H801.316H801.757H802.197H802.637H803.077H803.516H803.955H804.393H804.832H805.27H805.707H806.145H806.582H807.018H807.455H807.891H808.326H808.762H809.196H809.631H810.065H810.499H810.933H811.366H811.799H812.231H812.663H813.095H813.526H813.957H814.388H814.818H815.248H815.678H816.107H816.535H816.964H817.392H817.819H818.247H818.673H819.1H819.526H819.952H820.377H820.802H821.226H821.65H822.074H822.497H822.92H823.343H823.765H824.186H824.608H825.029H825.449H825.869H826.289H826.708H827.126H827.545H827.963H828.38H828.797H829.214H829.63H830.046H830.461H830.876H831.29H831.704H832.118H832.531H832.944H833.356H833.767H834.179H834.59H835H835.41H835.819H836.228H836.637H837.045H837.453H837.86H838.266H838.673H839.078H839.484H839.888H840.293H840.697H841.1H841.503H841.905H842.307H842.708H843.109H843.51H843.909L844.309 0.500015H844.708H845.106H845.504H845.901H846.298H846.695H847.091H847.486H847.881H848.275H848.669H849.062H849.455H849.847H850.239H850.63H851.021H851.411H851.801H852.19H852.578H852.966H853.354H853.741H854.127H854.513H854.898H855.283H855.667H856.051H856.434H856.817H857.199H857.58H857.961H858.341H858.721H859.1H859.479H859.857H860.234H860.611H860.988H861.363H861.739H862.113H862.487H862.861H863.233H863.606H863.977H864.349H864.719H865.089H865.458H865.827H866.195H866.563H866.929H867.296H867.661H868.027H868.391H868.755H869.118H869.481H869.843H870.204H870.565H870.925H871.285H871.644H872.002H872.36H872.717H873.073H873.429H873.784H874.138H874.492H874.845H875.198H875.55H875.901H876.252H876.602H876.951H877.3H877.648H877.995H878.342H878.688H879.033H879.378H879.722H880.065H880.408H880.75H881.091H881.432H881.772H882.111H882.45H882.788H883.125H883.462H883.797H884.133H884.467H884.801H885.134H885.466H885.798H886.129H886.46H886.789H887.118H887.446H887.774H888.1H888.427H888.752H889.076H889.4H889.724H890.046H890.368H890.689H891.009H891.329H891.647H891.966H892.283H892.6H892.915H893.231H893.545H893.859H894.171H894.484H894.795H895.106H895.416H895.725H896.033H896.341H896.648H896.954H897.259H897.564H897.868H898.171H898.473H898.774H899.075H899.375H899.674H899.973H900.27H900.567H900.863H901.158H901.453H901.747H902.04H902.332H902.623H902.913H903.203H903.492H903.78H904.067H904.354H904.64H904.924H905.209H905.492H905.774H906.056H906.337H906.617H906.896H907.174H907.452H907.728H908.004H908.279H908.553H908.827H909.099H909.371H909.642H909.912H910.181H910.449H910.717H910.983H911.249H911.514H911.778H912.041H912.303H912.565H912.825H913.085H913.344H913.602H913.859H914.115H914.371H914.625H914.879H915.132H915.384H915.635H915.885H916.134H916.382H916.63H916.876H917.122H917.367H917.611H917.854H918.096H918.337H918.577H918.817H919.055H919.293H919.529H919.765H920L39.8616 174.106M0.5 185.337V185.857L40 174.586M0.5 185.337L39.8616 174.106M40 174.586L39.8616 174.106M40 174.586L39.8616 174.106M719.907 156.658C639.95 171.762 560 175.986 480.053 167.537C450.8 164.445 421.552 159.658 392.289 154.868C381.554 153.111 370.817 151.354 360.077 149.68C320.071 143.444 280.038 138.365 239.995 138.789L239.994 138.789C159.919 139.741 79.8602 162.587 39.8628 174.106L719.907 156.658Z" stroke="black"/>
</g>
</g>
<rect x="0.5" y="0.5" width="959" height="539" stroke="black"/>
<rect x="0.5" y="0.5" width="959" height="539" stroke="black" stroke-opacity="0.2"/>
</g>
<defs>
<filter id="filter0_i_2_2" x="0" y="0" width="960" height="544" filterUnits="userSpaceOnUse" color-interpolation-filters="sRGB">
<feFlood flood-opacity="0" result="BackgroundImageFix"/>
<feBlend mode="normal" in="SourceGraphic" in2="BackgroundImageFix" result="shape"/>
<feColorMatrix in="SourceAlpha" type="matrix" values="0 0 0 0 0 0 0 0 0 0 0 0 0 0 0 0 0 0 127 0" result="hardAlpha"/>
<feOffset dy="4"/>
<feGaussianBlur stdDeviation="2"/>
<feComposite in2="hardAlpha" operator="arithmetic" k2="-1" k3="1"/>
<feColorMatrix type="matrix" values="0 0 0 0 0 0 0 0 0 0 0 0 0 0 0 0 0 0 0.25 0"/>
<feBlend mode="normal" in2="shape" result="effect1_innerShadow_2_2"/>
</filter>
<filter id="filter1_d_2_2" x="-4" y="7.62939e-06" width="968" height="194" filterUnits="userSpaceOnUse" color-interpolation-filters="sRGB">
<feFlood flood-opacity="0" result="BackgroundImageFix"/>
<feColorMatrix in="SourceAlpha" type="matrix" values="0 0 0 0 0 0 0 0 0 0 0 0 0 0 0 0 0 0 127 0" result="hardAlpha"/>
<feOffset dy="4"/>
<feGaussianBlur stdDeviation="2"/>
<feComposite in2="hardAlpha" operator="out"/>
<feColorMatrix type="matrix" values="0 0 0 0 0 0 0 0 0 0 0 0 0 0 0 0 0 0 0.25 0"/>
<feBlend mode="normal" in2="BackgroundImageFix" result="effect1_dropShadow_2_2"/>
<feBlend mode="normal" in="SourceGraphic" in2="effect1_dropShadow_2_2" result="shape"/>
</filter>
<filter id="filter2_d_2_2" x="-4" y="5.34058e-05" width="968" height="194" filterUnits="userSpaceOnUse" color-interpolation-filters="sRGB">
<feFlood flood-opacity="0" result="BackgroundImageFix"/>
<feColorMatrix in="SourceAlpha" type="matrix" values="0 0 0 0 0 0 0 0 0 0 0 0 0 0 0 0 0 0 127 0" result="hardAlpha"/>
<feOffset dy="4"/>
<feGaussianBlur stdDeviation="2"/>
<feComposite in2="hardAlpha" operator="out"/>
<feColorMatrix type="matrix" values="0 0 0 0 0 0 0 0 0 0 0 0 0 0 0 0 0 0 0.25 0"/>
<feBlend mode="normal" in2="BackgroundImageFix" result="effect1_dropShadow_2_2"/>
<feBlend mode="normal" in="SourceGraphic" in2="effect1_dropShadow_2_2" result="shape"/>
</filter>
<filter id="filter3_d_2_2" x="-4" y="1.52588e-05" width="968" height="194" filterUnits="userSpaceOnUse" color-interpolation-filters="sRGB">
<feFlood flood-opacity="0" result="BackgroundImageFix"/>
<feColorMatrix in="SourceAlpha" type="matrix" values="0 0 0 0 0 0 0 0 0 0 0 0 0 0 0 0 0 0 127 0" result="hardAlpha"/>
<feOffset dy="4"/>
<feGaussianBlur stdDeviation="2"/>
<feComposite in2="hardAlpha" operator="out"/>
<feColorMatrix type="matrix" values="0 0 0 0 0 0 0 0 0 0 0 0 0 0 0 0 0 0 0.25 0"/>
<feBlend mode="normal" in2="BackgroundImageFix" result="effect1_dropShadow_2_2"/>
<feBlend mode="normal" in="SourceGraphic" in2="effect1_dropShadow_2_2" result="shape"/>
</filter>
<clipPath id="clip0_2_2">
<rect width="960" height="540" fill="white"/>
</clipPath>
</defs>
</svg>
