<svg width="960" height="540" viewBox="0 0 960 540" fill="none" xmlns="http://www.w3.org/2000/svg" class="icon">
<g id="tech-icon" clip-path="url(#clip0_1_2)">
<g id="right-node">
<g id="Group 3">
<path id="Line 1" d="M827 191V235" stroke="white" stroke-width="2"/>
<line id="Line 2" y1="-1" x2="75" y2="-1" transform="matrix(0 -1 -1 0 798 358)" stroke="white" stroke-width="2"/>
<line id="Line 3" y1="-1" x2="57" y2="-1" transform="matrix(-0.5 0.866025 0.866025 0.5 828 235)" stroke="white" stroke-width="2"/>
</g>
<g id="Group 4">
<path id="Line 1_2" d="M821 191V235" stroke="white" stroke-width="2"/>
<line id="Line 2_2" y1="-1" x2="80" y2="-1" transform="matrix(0 -1 -1 0 792 363)" stroke="white" stroke-width="2"/>
<line id="Line 3_2" y1="-1" x2="57" y2="-1" transform="matrix(-0.5 0.866025 0.866025 0.5 822 235)" stroke="white" stroke-width="2"/>
</g>
<circle id="Ellipse 2" r="7" transform="matrix(-1 0 0 1 824 185)" stroke="white" stroke-width="2"/>
</g>
<g id="frame">
<g id="Polygon 1" filter="url(#filter0_d_1_2)">
<path d="M618.601 151.616L753.5 73.7321L888.399 151.616V307.384L753.5 385.268L618.601 307.384V151.616Z" stroke="#05C3FF" stroke-width="3" shape-rendering="crispEdges"/>
</g>
<g id="Polygon 2" filter="url(#filter1_d_1_2)">
<path d="M714.023 80.2856L865.741 115.574L911.04 264.61L804.62 378.357L652.902 343.069L607.603 194.033L714.023 80.2856Z" stroke="white" stroke-width="3" shape-rendering="crispEdges"/>
</g>
</g>
<g id="left-node">
<g id="Group 3_2">
<path id="Line 1_3" d="M689 202V246" stroke="white" stroke-width="2"/>
<line id="Line 2_3" x1="717" y1="359" x2="717" y2="294" stroke="white" stroke-width="2"/>
<line id="Line 3_3" x1="688.866" y1="245.5" x2="717.366" y2="294.863" stroke="white" stroke-width="2"/>
</g>
<g id="Group 4_2">
<path id="Line 1_4" d="M695 202V246" stroke="white" stroke-width="2"/>
<line id="Line 2_4" x1="723" y1="359" x2="723" y2="294" stroke="white" stroke-width="2"/>
<line id="Line 3_4" x1="694.866" y1="245.5" x2="723.366" y2="294.863" stroke="white" stroke-width="2"/>
</g>
<circle id="Ellipse 2_2" cx="692" cy="196" r="7" stroke="white" stroke-width="2"/>
</g>
<g id="center-node">
<circle id="Ellipse 1" cx="757" cy="155" r="7" stroke="white" stroke-width="2"/>
<line id="Line 4" x1="753" y1="364.995" x2="754" y2="160.995" stroke="white" stroke-width="2"/>
<path id="Line 5" d="M758.492 366.693L759.5 160.995" stroke="white" stroke-width="2"/>
</g>
</g>
<defs>
<filter id="filter0_d_1_2" x="613.101" y="72" width="280.798" height="323" filterUnits="userSpaceOnUse" color-interpolation-filters="sRGB">
<feFlood flood-opacity="0" result="BackgroundImageFix"/>
<feColorMatrix in="SourceAlpha" type="matrix" values="0 0 0 0 0 0 0 0 0 0 0 0 0 0 0 0 0 0 127 0" result="hardAlpha"/>
<feOffset dy="4"/>
<feGaussianBlur stdDeviation="2"/>
<feComposite in2="hardAlpha" operator="out"/>
<feColorMatrix type="matrix" values="0 0 0 0 0 0 0 0 0 0 0 0 0 0 0 0 0 0 0.25 0"/>
<feBlend mode="normal" in2="BackgroundImageFix" result="effect1_dropShadow_1_2"/>
<feBlend mode="normal" in="SourceGraphic" in2="effect1_dropShadow_1_2" result="shape"/>
</filter>
<filter id="filter1_d_1_2" x="601.916" y="78.6284" width="314.81" height="309.386" filterUnits="userSpaceOnUse" color-interpolation-filters="sRGB">
<feFlood flood-opacity="0" result="BackgroundImageFix"/>
<feColorMatrix in="SourceAlpha" type="matrix" values="0 0 0 0 0 0 0 0 0 0 0 0 0 0 0 0 0 0 127 0" result="hardAlpha"/>
<feOffset dy="4"/>
<feGaussianBlur stdDeviation="2"/>
<feComposite in2="hardAlpha" operator="out"/>
<feColorMatrix type="matrix" values="0 0 0 0 0 0 0 0 0 0 0 0 0 0 0 0 0 0 0.25 0"/>
<feBlend mode="normal" in2="BackgroundImageFix" result="effect1_dropShadow_1_2"/>
<feBlend mode="normal" in="SourceGraphic" in2="effect1_dropShadow_1_2" result="shape"/>
</filter>
<clipPath id="clip0_1_2">
<rect width="960" height="540" fill="white"/>
</clipPath>
</defs>
</svg>
